HIERARCHY
ROOT SpineBase
{
  OFFSET 0.000000 0.000000 0.000000
  CHANNELS 6 Xposition Yposition Zposition Zrotation Xrotation Yrotation
  JOINT SpineMid
  {
    OFFSET 0.000000 22.236991 0.000000
    CHANNELS 3 Zrotation Xrotation Yrotation
    JOINT SpineShoulder
    {
      OFFSET 0.018504 16.748414 -0.570431
      CHANNELS 3 Zrotation Xrotation Yrotation
      JOINT Neck
      {
        OFFSET -0.008180 5.633571 -0.447946
        CHANNELS 3 Zrotation Xrotation Yrotation
        JOINT Head
        {
          OFFSET -0.546574 12.450914 2.400506
          CHANNELS 3 Zrotation Xrotation Yrotation
          End Site
          {
            OFFSET 0 0 0
          }
        }
      }
      JOINT ShoulderLeft
      {
        OFFSET -11.583916 -2.167554 5.407142
        CHANNELS 3 Zrotation Xrotation Yrotation
        JOINT ElbowLeft
        {
          OFFSET -6.402058 -21.977126 -2.780402
          CHANNELS 3 Zrotation Xrotation Yrotation
          JOINT WristLeft
          {
            OFFSET -10.855926 -10.295923 7.174142
            CHANNELS 3 Zrotation Xrotation Yrotation
            JOINT HandLeft
            {
              OFFSET -0.225121 -1.335845 -1.299788
              CHANNELS 3 Zrotation Xrotation Yrotation
              JOINT HandTipLeft
              {
                OFFSET 2.183534 -2.739337 0.796927
                CHANNELS 3 Zrotation Xrotation Yrotation
                End Site
                {
                  OFFSET 0 0 0
                }
              }
              JOINT ThumbLeft
              {
                OFFSET 1.129333 2.813521 1.883370
                CHANNELS 3 Zrotation Xrotation Yrotation
                End Site
                {
                  OFFSET 0 0 0
                }
              }
            }
          }
        }
      }
      JOINT ShoulderRight
      {
        OFFSET 8.246612 -2.467475 -8.904530
        CHANNELS 3 Zrotation Xrotation Yrotation
        JOINT ElbowRight
        {
          OFFSET 1.876710 -19.027548 -5.301979
          CHANNELS 3 Zrotation Xrotation Yrotation
          JOINT WristRight
          {
            OFFSET -17.903042 -9.268895 -6.833128
            CHANNELS 3 Zrotation Xrotation Yrotation
            JOINT HandRight
            {
              OFFSET -3.645858 -1.024586 -1.981975
              CHANNELS 3 Zrotation Xrotation Yrotation
              JOINT HandTipRight
              {
                OFFSET -6.562341 -2.233968 -4.346384
                CHANNELS 3 Zrotation Xrotation Yrotation
                End Site
                {
                  OFFSET 0 0 0
                }
              }
              JOINT ThumbRight
              {
                OFFSET 0.594957 -2.124260 -5.705854
                CHANNELS 3 Zrotation Xrotation Yrotation
                End Site
                {
                  OFFSET 0 0 0
                }
              }
            }
          }
        }
      }
    }
  }
  JOINT HipLeft
  {
    OFFSET -4.607652 1.114012 0.061404
    CHANNELS 3 Zrotation Xrotation Yrotation
    JOINT KneeLeft
    {
      OFFSET -21.639588 0.331250 -25.306568
      CHANNELS 3 Zrotation Xrotation Yrotation
      JOINT AnkleLeft
      {
        OFFSET 0.023036 -36.211026 -0.041158
        CHANNELS 3 Zrotation Xrotation Yrotation
        JOINT FootLeft
        {
          OFFSET -4.043282 -3.679106 -4.272418
          CHANNELS 3 Zrotation Xrotation Yrotation
          End Site
          {
            OFFSET 0 0 0
          }
        }
      }
    }
  }
  JOINT HipRight
  {
    OFFSET 4.237149 1.614659 -5.548528
    CHANNELS 3 Zrotation Xrotation Yrotation
    JOINT KneeRight
    {
      OFFSET -21.170866 0.735491 -24.523205
      CHANNELS 3 Zrotation Xrotation Yrotation
      JOINT AnkleRight
      {
        OFFSET -2.609330 -26.951465 -3.060735
        CHANNELS 3 Zrotation Xrotation Yrotation
        JOINT FootRight
        {
          OFFSET -2.649641 -7.115233 2.884674
          CHANNELS 3 Zrotation Xrotation Yrotation
          End Site
          {
            OFFSET 0 0 0
          }
        }
      }
    }
  }
}
MOTION
Frames: 12
Frame Time: 0.033333
30.470400 40.351337 369.009866 -0.000000 0.000000 32.385453 -0.000000 0.000000 -32.385453 -0.000000 0.000000 0.000000 -0.000000 0.000000 0.000000 0.000000 0.000000 0.000000 -0.000000 0.000000 0.000000 -0.000000 0.000000 0.000000 -0.000000 0.000000 0.000000 -0.000000 0.000000 0.000000 0.000000 0.000000 0.000000 0.000000 0.000000 0.000000 -0.000000 0.000000 0.000000 -0.000000 0.000000 0.000000 -0.000000 0.000000 0.000000 -0.000000 0.000000 0.000000 0.000000 0.000000 0.000000 0.000000 0.000000 0.000000 -0.000000 0.000000 -32.385453 -0.000000 0.000000 0.000000 -0.000000 0.000000 0.000000 0.000000 0.000000 0.000000 -0.000000 0.000000 -32.385453 -0.000000 0.000000 0.000000 -0.000000 0.000000 0.000000 0.000000 0.000000 0.000000
30.438616 40.363554 369.002871 -0.053877 0.063362 31.722233 0.012513 -0.082225 -31.722194 -0.000000 0.000000 0.000000 -0.000000 0.000000 0.000000 0.000000 0.000000 0.000000 -0.000000 0.000000 0.000000 -0.000000 0.000000 0.000000 1.101491 -0.374240 -1.009946 -5.636940 5.062012 3.878437 0.000000 0.000000 0.000000 0.000000 0.000000 0.000000 -0.996064 0.456765 0.326496 3.635975 -0.715692 -1.850291 -0.345091 -0.464503 -0.558804 -4.460281 1.997075 1.969765 0.000000 0.000000 0.000000 0.000000 0.000000 0.000000 0.012513 -0.082225 -31.722194 -0.000000 0.000000 0.000000 -4.360246 11.262098 -5.979778 0.000000 0.000000 0.000000 0.012513 -0.082225 -31.722194 -0.386480 -2.210285 0.250920 -2.952487 8.045890 -3.532253 0.000000 0.000000 0.000000
30.412222 40.371144 368.994695 -0.102362 0.122452 31.170420 0.024205 -0.157755 -31.170278 -0.000000 0.000000 0.000000 -0.000000 0.000000 0.000000 0.000000 0.000000 0.000000 -0.644558 -0.775818 0.302948 0.648710 0.772350 -0.311685 1.929044 -0.389318 -1.815992 -10.911054 8.829043 7.493440 0.000000 0.000000 0.000000 0.000000 0.000000 0.000000 -1.776736 0.834909 0.590118 8.433432 -1.700290 -4.263195 -1.459596 -0.863110 -1.569977 -9.775819 3.761941 4.823521 0.000000 0.000000 0.000000 0.000000 0.000000 0.000000 0.024205 -0.157755 -31.170278 -0.000000 0.000000 0.000000 -6.487923 18.276077 -9.322377 0.000000 0.000000 0.000000 0.024205 -0.157755 -31.170278 -0.682336 -3.761823 0.420742 -5.731495 16.389096 -6.810853 0.000000 0.000000 0.000000
30.391218 40.374105 368.985337 -0.145415 0.177229 30.727265 0.034445 -0.226647 -30.726972 -0.000000 0.000000 0.000000 -0.469095 -0.831208 0.050629 0.000000 0.000000 0.000000 -0.858016 -1.059111 0.408740 0.865695 1.052843 -0.424625 2.553442 -0.085954 -2.479265 -15.615327 11.343744 10.593347 0.000000 0.000000 0.000000 0.000000 0.000000 0.000000 -2.355820 1.143381 0.792214 15.223413 -3.303910 -7.574579 -3.910836 -1.300672 -3.060790 -15.974175 4.929067 8.455189 0.000000 0.000000 0.000000 0.000000 0.000000 0.000000 0.034445 -0.226647 -30.726972 -0.000000 0.000000 0.000000 -7.603524 22.627122 -11.323135 0.000000 0.000000 0.000000 0.034445 -0.226647 -30.726972 -0.917043 -4.817128 0.534356 -8.157052 24.966915 -9.871597 0.000000 0.000000 0.000000
30.375603 40.372440 368.974797 -0.183000 0.227653 30.390538 0.042689 -0.288950 -30.390067 -0.000000 0.000000 0.000000 -0.559090 -1.015037 0.058392 0.000000 0.000000 0.000000 -0.999451 -1.272056 0.485369 1.010436 1.263349 -0.507606 3.019525 0.520061 -3.039416 -19.546488 12.660617 12.917225 0.000000 0.000000 0.000000 0.000000 0.000000 0.000000 -2.743067 1.388871 0.933773 25.374644 -6.315437 -12.198576 -8.763675 -2.088170 -4.937971 -22.196495 5.031134 11.793335 0.000000 0.000000 0.000000 0.000000 0.000000 0.000000 0.042689 -0.288950 -30.390067 -0.000000 0.000000 0.000000 -8.201816 25.303792 -12.554792 0.000000 0.000000 0.000000 0.042689 -0.288950 -30.390067 -1.108700 -5.475247 0.606109 -10.015480 33.524513 -12.765406 0.000000 0.000000 0.000000
30.365378 40.366147 368.963077 -0.215091 0.273690 30.158551 0.048477 -0.344703 -30.157891 -0.000000 0.000000 0.000000 -0.616770 -1.153477 0.062202 0.000000 0.000000 0.000000 -1.069181 -1.414417 0.533499 1.082628 1.404151 -0.559964 3.355671 1.433191 -3.522947 -22.491739 12.769926 14.167668 0.000000 0.000000 0.000000 0.000000 0.000000 0.000000 -2.944384 1.576067 1.015249 40.543505 -12.226136 -18.082624 -17.418195 -4.096767 -6.950950 -22.371211 4.182157 8.916371 0.000000 0.000000 0.000000 0.000000 0.000000 0.000000 0.048477 -0.344703 -30.157891 -0.000000 0.000000 0.000000 -8.495539 26.838800 -13.285684 0.000000 0.000000 0.000000 0.048477 -0.344703 -30.157891 -1.268971 -5.794099 0.644341 -11.075168 41.712442 -15.605582 0.000000 0.000000 0.000000
30.356975 40.352769 368.947790 -0.243488 0.310786 30.117219 0.054677 -0.391004 -30.116372 -0.000000 0.000000 0.000000 -0.703009 -1.192958 0.076023 0.000000 0.000000 0.000000 -1.083705 -1.569987 0.579036 1.099921 1.558671 -0.608848 3.192687 3.708109 -3.734369 -19.343729 9.227768 12.286800 0.000000 0.000000 0.000000 0.000000 0.000000 0.000000 -3.026478 1.737511 1.059060 70.214761 -26.989341 -24.297186 -34.945888 -11.709231 -9.356153 34.982970 -5.357518 2.609039 0.000000 0.000000 0.000000 0.000000 0.000000 0.000000 0.054677 -0.391004 -30.116372 -0.000000 0.000000 0.000000 -7.913640 24.895637 -12.591794 0.000000 0.000000 0.000000 0.054677 -0.391004 -30.116372 -1.631795 -6.005899 0.684845 -12.584176 57.959723 -21.911854 0.000000 0.000000 0.000000
30.366777 40.336060 368.922511 -0.241020 0.362548 30.075886 0.026883 -0.434521 -30.075022 -0.000000 0.000000 0.000000 -0.780872 -1.241737 0.087788 0.000000 0.000000 0.000000 -0.909546 -1.653590 0.583390 0.926715 1.644031 -0.609813 0.660255 8.997051 -2.057943 -42.006133 16.823578 21.768967 0.000000 0.000000 0.000000 0.000000 0.000000 0.000000 -2.766999 1.785156 0.988410 90.910405 -37.503701 -24.278986 -40.604005 -20.905030 -14.014152 31.179742 3.416079 9.843258 0.000000 0.000000 0.000000 0.000000 0.000000 0.000000 0.026883 -0.434521 -30.075022 -0.000000 0.000000 0.000000 -7.779259 24.973673 -12.797123 0.000000 0.000000 0.000000 0.026883 -0.434521 -30.075022 -1.776447 -5.641252 0.663541 -9.832087 65.661738 -27.147059 0.000000 0.000000 0.000000
30.373404 40.323375 368.890866 -0.267186 0.424572 30.004922 0.019065 -0.501283 -30.003848 -0.000000 0.000000 0.000000 -0.667495 -1.287314 0.064838 0.000000 0.000000 0.000000 -0.736309 -1.503284 0.521320 1.066536 0.999722 0.196427 1.621409 9.520296 -3.967806 -54.894333 15.722835 20.158919 0.000000 0.000000 0.000000 0.000000 0.000000 0.000000 -2.309181 1.704816 0.844220 108.866711 -44.209298 -19.099985 -45.105191 -29.065615 -21.563099 64.289174 9.496463 -3.704807 0.000000 0.000000 0.000000 0.000000 0.000000 0.000000 0.019065 -0.501283 -30.003848 -0.000000 0.000000 0.000000 -7.738656 25.026097 -12.879404 0.000000 0.000000 0.000000 0.019065 -0.501283 -30.003848 -1.642889 -4.709234 0.577103 -5.824128 67.023728 -30.567445 0.000000 0.000000 0.000000
30.383612 40.315587 368.882401 -0.290024 0.441229 30.132104 0.029343 -0.527194 -30.130852 -0.000000 0.000000 0.000000 -0.511548 -1.237616 0.038858 0.000000 0.000000 0.000000 -0.610826 -1.217461 0.425364 0.924710 0.630166 0.383390 3.365284 5.905309 -5.249603 -63.731270 19.733768 32.699718 0.000000 0.000000 0.000000 0.000000 0.000000 0.000000 -1.867137 1.677093 0.711308 112.736748 -45.218700 -17.273137 -45.617435 -30.985979 -23.320446 71.835013 14.059891 -4.586212 0.000000 0.000000 0.000000 0.000000 0.000000 0.000000 0.029343 -0.527194 -30.130852 -0.000000 0.000000 0.000000 -7.799099 25.013981 -12.803103 0.000000 0.000000 0.000000 0.029343 -0.527194 -30.130852 -1.489700 -3.860943 0.494181 -0.879605 63.565671 -30.956770 0.000000 0.000000 0.000000
30.399578 40.307218 368.913315 -0.307245 0.417674 30.488294 0.052857 -0.515805 -30.486936 -0.000000 0.000000 0.000000 -0.308315 -1.269155 0.000312 0.000000 0.000000 0.000000 -0.572000 -1.074014 0.379777 0.924418 0.493160 0.453625 4.657557 2.750544 -6.138180 -13.597895 1.305277 6.338142 0.000000 0.000000 0.000000 0.000000 0.000000 0.000000 -1.463877 1.618059 0.586628 108.862616 -43.469294 -17.335864 -47.286418 -28.704894 -24.404092 78.306221 11.258782 -6.214720 0.000000 0.000000 0.000000 0.000000 0.000000 0.000000 0.052857 -0.515805 -30.486936 -0.000000 0.000000 0.000000 -7.845160 25.002228 -12.743222 0.000000 0.000000 0.000000 0.052857 -0.515805 -30.486936 -1.048980 -2.924141 0.376277 0.270019 53.338883 -24.840407 0.000000 0.000000 0.000000
30.389489 40.320994 368.918336 -0.381402 0.467245 30.499159 0.091501 -0.596163 -30.497128 -0.000000 0.000000 0.000000 -0.070855 -1.368943 -0.047393 0.000000 0.000000 0.000000 -0.716301 -0.782029 0.313246 1.325225 0.411504 0.478956 9.444124 -7.988122 -9.379074 -51.481089 19.560983 30.604909 0.000000 0.000000 0.000000 0.000000 0.000000 0.000000 -1.260395 1.570599 0.521986 91.337202 -36.252652 -19.612447 -49.716291 -18.654748 -26.574951 82.031436 10.018858 2.693740 0.000000 0.000000 0.000000 0.000000 0.000000 0.000000 0.091501 -0.596163 -30.497128 -0.000000 0.000000 0.000000 -8.020664 24.968771 -12.523240 0.000000 0.000000 0.000000 0.091501 -0.596163 -30.497128 -0.305385 -1.976938 0.221206 -0.912488 36.136223 -15.194642 0.000000 0.000000 0.000000
